<?xml version="1.0" standalone="no"?>
<!DOCTYPE svg PUBLIC "-//W3C//DTD SVG 20010904//EN"
 "http://www.w3.org/TR/2001/REC-SVG-20010904/DTD/svg10.dtd">
<svg version="1.0" xmlns="http://www.w3.org/2000/svg"
 width="300.000000pt" height="300.000000pt" viewBox="0 0 300.000000 300.000000"
 preserveAspectRatio="xMidYMid meet">
<metadata>
Created by potrace 1.14, written by Peter Selinger 2001-2017
</metadata>
<g transform="translate(0.000000,300.000000) scale(0.100000,-0.100000)"
fill="#007c90" stroke="none">
<path d="M567 2893 c-18 -31 -337 -1227 -337 -1264 0 -50 39 -82 136 -111 l74
-23 0 -46 c0 -27 6 -51 14 -58 39 -32 204 -69 576 -128 180 -29 93 -25 -167 7
-274 33 -339 37 -258 15 121 -32 355 -69 699 -111 81 -10 144 -20 138 -22 -6
-2 -104 6 -219 17 -268 27 -600 42 -733 34 l-105 -7 56 -17 c77 -24 222 -36
634 -54 336 -15 612 -36 699 -55 52 -12 -53 -6 -309 15 -343 29 -932 32 -882
4 37 -21 466 -69 622 -69 49 0 65 -3 55 -10 -8 -5 -62 -10 -120 -10 -174 0
-976 -45 -988 -55 -2 -2 0 -27 4 -56 6 -45 9 -50 15 -29 4 14 7 19 8 13 1 -10
274 -13 1330 -13 l1328 0 13 -76 c6 -42 13 -113 15 -158 4 -94 -18 -245 -37
-257 -7 -5 -68 -9 -136 -9 l-123 0 2 33 c4 48 -16 77 -51 77 -22 0 -30 -5 -30
-17 -1 -10 -14 7 -30 37 -17 30 -38 66 -47 79 -17 24 -17 24 4 13 31 -17 90
-15 97 3 3 8 -4 24 -16 35 -18 17 -35 20 -104 20 -60 0 -85 -4 -94 -15 -10
-12 -9 -15 4 -15 24 0 50 -27 33 -33 -6 -3 -2 -6 9 -6 24 -1 40 -27 21 -35 -7
-2 -5 -5 4 -5 19 -1 35 -31 16 -31 -8 0 -8 -3 2 -9 8 -5 11 -16 8 -24 -3 -9
-1 -17 5 -19 6 -2 4 -11 -6 -21 -16 -15 -16 -17 -1 -17 11 0 15 -7 13 -22 l-3
-23 -1124 -3 -1124 -2 7 57 c3 32 9 108 11 168 l6 110 -45 -151 c-47 -161 -49
-198 -18 -264 13 -26 27 -38 57 -47 30 -8 328 -12 1155 -13 613 -1 1123 -4
1132 -8 9 -4 30 -26 47 -49 l31 -43 67 0 66 0 -20 23 c-27 30 -46 67 -38 75 4
4 41 7 83 8 153 1 162 2 186 29 14 15 22 33 19 44 -3 11 8 54 23 98 22 61 29
101 32 186 4 95 1 117 -22 193 -15 47 -36 94 -47 105 -18 18 -18 22 -4 49 19
36 19 37 -2 42 -13 4 -55 99 -147 334 -71 181 -190 486 -266 678 l-137 350
-39 12 c-48 16 -1086 355 -1435 470 -252 83 -284 91 -292 77z m938 -344 c402
-133 731 -243 733 -244 2 -2 84 -235 187 -535 24 -69 76 -217 115 -330 106
-302 102 -286 77 -288 -15 -1 -18 1 -8 7 10 7 8 22 -12 82 -14 41 -46 135 -72
209 -25 74 -50 144 -54 155 -14 33 -88 240 -217 611 l-25 72 -117 38 c-64 20
-144 48 -177 60 -33 12 -118 41 -190 64 -71 23 -193 63 -270 90 -77 26 -270
91 -430 143 -159 52 -297 98 -306 101 -12 5 -20 -9 -37 -71 -23 -84 -179 -695
-192 -753 -4 -19 -17 -73 -29 -119 -24 -89 -22 -111 6 -111 10 0 25 -5 33 -11
11 -8 5 -9 -25 -4 -22 4 -44 10 -48 14 -4 4 8 70 27 147 19 76 63 252 96 389
119 486 132 540 136 547 3 4 19 1 37 -7 17 -7 361 -122 762 -256z m31 -154
c10 -24 -14 -69 -57 -111 -51 -49 -50 -34 1 27 22 26 40 50 40 53 0 26 -195
-25 -333 -87 l-67 -30 96 -62 c93 -60 97 -61 135 -51 34 9 39 14 34 31 -12 37
-18 135 -8 135 15 0 32 -45 26 -68 -6 -25 24 -90 48 -103 25 -13 26 -54 2 -43
-28 12 -100 17 -88 7 41 -39 157 -125 162 -120 6 6 -13 172 -23 210 -8 25 -22
21 -26 -7 l-3 -24 -24 19 c-13 11 -21 22 -18 26 4 3 13 1 21 -6 11 -9 15 -7
19 10 3 12 10 18 16 14 7 -4 11 4 11 19 0 37 18 32 36 -9 16 -39 17 -48 6 -41
-9 5 7 -153 17 -172 6 -10 13 -9 31 6 l24 19 -23 165 c-13 90 -21 175 -19 189
3 22 5 21 26 -18 14 -28 18 -43 10 -45 -8 -3 -5 -44 11 -149 31 -209 28 -236
-29 -254 -17 -5 -20 -15 -20 -60 0 -72 -16 -79 -22 -9 -3 39 -10 59 -21 66
-10 5 -46 34 -82 64 -65 55 -65 55 -49 21 32 -67 7 -93 -128 -136 -50 -17 -88
-48 -88 -75 0 -51 57 -87 123 -78 35 5 63 57 44 81 -9 11 -8 16 6 25 43 26 50
34 51 62 1 39 30 39 34 0 2 -15 -1 -26 -6 -22 -12 7 -56 -40 -48 -52 3 -6 -3
-27 -15 -47 l-22 -36 39 16 c54 22 104 57 104 73 0 7 -11 34 -24 60 -27 54
-22 86 9 52 10 -11 20 -28 22 -38 16 -90 16 -93 -8 -119 -13 -14 -50 -38 -81
-54 -60 -30 -69 -46 -42 -73 21 -21 44 -9 109 58 34 36 72 61 118 81 68 30 69
30 63 63 -12 75 48 115 75 50 11 -28 10 -35 -8 -69 -24 -43 -21 -49 21 -49 64
0 63 -4 28 252 -37 266 -39 296 -18 279 18 -15 38 -71 26 -71 -10 0 -10 -4 20
-239 11 -84 20 -167 20 -183 0 -63 -85 -103 -125 -58 -23 26 -28 25 -102 -9
-39 -19 -83 -51 -117 -86 -65 -67 -97 -72 -131 -18 -21 34 -45 43 -45 18 0 -8
5 -15 11 -15 5 0 7 -4 4 -10 -11 -18 -25 -10 -25 15 0 20 -5 25 -26 25 -52 0
-88 33 -99 88 -5 27 -9 31 -20 22 -22 -18 -56 -8 -79 23 -20 27 -20 30 -5 72
16 44 16 45 -7 60 -32 21 -39 55 -19 101 10 21 19 54 20 73 2 19 13 47 24 62
12 16 21 39 21 52 0 13 8 31 19 41 39 35 319 134 384 135 16 1 30 -5 33 -14z
m627 -1502 c-364 -2 -962 -2 -1330 0 -367 1 -69 2 662 2 732 0 1032 -1 668 -2z"/>
<path d="M1096 2178 c-22 -31 -21 -59 2 -51 16 7 16 6 -1 -17 -62 -86 -70
-116 -41 -141 13 -11 22 -9 57 9 23 13 66 44 96 70 l53 48 -63 44 c-90 64 -86
63 -103 38z"/>
<path d="M1263 2047 c-17 -12 -54 -41 -82 -64 -28 -23 -60 -45 -71 -48 -22 -7
-45 -75 -35 -105 9 -30 42 -24 90 15 23 20 84 52 134 71 50 20 91 40 91 45 0
18 -31 57 -64 83 l-33 25 -30 -22z"/>
<path d="M843 843 c368 -2 966 -2 1330 0 364 1 64 2 -668 2 -731 0 -1029 -1
-662 -2z"/>
<path d="M172 788 l1 -43 4 37 4 38 1327 3 1327 2 -1332 3 -1333 2 2 -42z"/>
</g>
</svg>
